<svg width="233" height="39" viewBox="0 0 233 39" fill="none" xmlns="http://www.w3.org/2000/svg">
<path d="M55.498 26L50.6152 18.627L55.2539 12.0107H52.5928L48.8574 17.9922V12.0107H47.002V26H48.8574V19.75H49.2236L52.6172 26H55.498ZM62.5312 19.5059V16.7471H56.7451V14.9893H64.4844V26H56.7939V19.5059H62.5312ZM62.5312 21.2881H58.6006V24.1934H62.5312V21.2881ZM74.2275 14.9893V26H66.4883V14.9893H68.3438V24.2422H72.2744V14.9893H74.2275ZM78.0869 24.1689V23.2412H76.2314V26L83.9219 25.9756V20.3359L78.1846 18.9932V16.8203H82.1396V18.9932H83.9707V14.9893H76.2314V20.751L82.0176 22.0938V24.1689H78.0869ZM91.7607 19.5059V16.7471H85.9746V14.9893H93.7139V26H86.0234V19.5059H91.7607ZM91.7607 21.2881H87.8301V24.1934H91.7607V21.2881ZM101.626 16.8203H97.6709V24.2422H103.262V26H95.7178V14.9893H103.457V18.9932H101.626V16.8203ZM113.2 26V14.9893H107.316V9.49609H105.461V26H107.316V16.7471H111.247V26H113.2ZM122.943 14.9893V26H115.204V14.9893H117.06V24.2422H120.99V14.9893H122.943ZM132.687 26V14.9893H124.947V26H126.803V16.7471H130.733V26H132.687ZM144.922 19.75H139.526L139.551 26H137.671V12.0107H144.922V19.75ZM142.969 17.9922V13.7441H139.526V17.9922H142.969ZM148.854 21.5078V24.2422H154.641V26H146.901V14.9893H154.592V21.5078H148.854ZM148.854 19.7012H152.81V16.7959H148.854V19.7012ZM161.283 16.7959L158.598 16.8203V26H156.645V14.9893H163.139V18.9932H161.283V16.7959ZM172.369 14.9893V26H164.63V14.9893H166.485V24.2422H170.416V14.9893H172.369ZM169.635 9.49609L164.63 12.7432L165.973 14.2568L170.978 11.0098L169.635 9.49609ZM179.478 9.52051L175.278 29.3203L177.085 29.7354L181.284 9.93555L179.478 9.52051ZM186.024 13.7441V17.9922H189.955V13.7441H186.024ZM191.908 26H189.955V19.75H186.024V26H184.169V12.0107H191.908V26ZM199.82 14.9893V9.49609H201.651V26H193.912V14.9893H199.82ZM199.82 24.1934V16.7471H195.865V24.1689L199.82 24.1934ZM211.395 26H209.393V16.7471H205.511V26H203.655V14.9893H217.156V26H215.203V16.7471H211.395V26ZM219.136 15.0137V26H220.991V14.9893L219.136 15.0137ZM219.136 9.49609V12.7432H220.991V9.49609H219.136ZM230.71 26V14.9893H222.971V26H224.826V16.7471H228.757V26H230.71Z" fill="#A7A970"/>
<circle cx="19.5" cy="19.5" r="19" stroke="#A7A970"/>
<circle cx="19.6949" cy="19.695" r="18.025" stroke="#A7A970"/>
<circle cx="18.5252" cy="19.305" r="16.075" stroke="#A7A970"/>
<circle cx="21.06" cy="18.72" r="15.1" stroke="#A7A970"/>
<circle cx="19.11" cy="18.33" r="13.15" stroke="#A7A970"/>
<circle cx="20.2801" cy="18.72" r="11.2" stroke="#A7A970"/>
<circle cx="19.8901" cy="17.94" r="9.25" stroke="#A7A970"/>
<circle cx="19.5002" cy="17.16" r="7.3" stroke="#A7A970"/>
<circle cx="20.2802" cy="17.55" r="5.35" stroke="#A7A970"/>
<circle cx="19.8902" cy="16.77" r="3.4" stroke="#A7A970"/>
<circle cx="19.8899" cy="15.99" r="1.45" stroke="#A7A970"/>
</svg>
